<?xml version="1.0" encoding="UTF-8"?>
<svg version="1.1" xmlns="http://www.w3.org/2000/svg" width="512" height="507">
<path d="M0 0 C1.54300781 0.29801514 1.54300781 0.29801514 3.1171875 0.60205078 C68.53134881 13.69076561 125.80717644 50.03646084 165 104 C165.66080566 104.90758057 165.66080566 104.90758057 166.33496094 105.83349609 C186.53419242 133.94054537 199.53941029 166.48379948 206.75 200.1875 C206.94891846 201.11248291 207.14783691 202.03746582 207.3527832 202.99047852 C210.54077395 218.68972596 211.3780958 234.14646005 211.3125 250.125 C211.31034485 251.07220917 211.3081897 252.01941833 211.30596924 252.99533081 C211.25419035 267.19187392 210.8146013 281.04332023 208 295 C207.70198486 296.52536377 207.70198486 296.52536377 207.39794922 298.08154297 C199.50182307 337.5503443 183.14710426 374.47861144 158 406 C157.25492187 406.95648438 156.50984375 407.91296875 155.7421875 408.8984375 C114.26803192 461.0854746 52.27170327 495.04027088 -13.83520508 503.22607422 C-38.68886542 505.72122123 -65.45203356 505.75659586 -90 501 C-91.02867187 500.80132324 -92.05734375 500.60264648 -93.1171875 500.39794922 C-138.97989158 491.22128406 -181.03763397 471.17099975 -216 440 C-216.52899902 439.53271484 -217.05799805 439.06542969 -217.60302734 438.58398438 C-231.73653359 426.04913755 -243.92281708 412.29723581 -255 397 C-255.43908691 396.39639648 -255.87817383 395.79279297 -256.33056641 395.17089844 C-276.52200479 367.07777738 -289.51225055 334.5555897 -296.75 300.875 C-296.94891846 299.958396 -297.14783691 299.04179199 -297.3527832 298.09741211 C-300.54216649 282.44603697 -301.38200733 266.81039236 -301.3125 250.875 C-301.31034485 249.97958496 -301.3081897 249.08416992 -301.30596924 248.16162109 C-301.12654064 201.53922489 -288.35354039 155.37267169 -263 116 C-262.57251465 115.33597168 -262.1450293 114.67194336 -261.70458984 113.98779297 C-223.65850666 55.58656191 -164.58059404 15.76102176 -96.48046875 1.2890625 C-65.48720084 -4.98354762 -31.14888733 -6.03563921 0 0 Z " fill="#B23A60" transform="translate(301,3)"/>
<path d="M0 0 C1.28635345 -0.01475876 1.28635345 -0.01475876 2.59869385 -0.02981567 C20.99932861 -0.1973584 39.02403876 -0.36050199 56.97265625 4.23828125 C57.93606934 4.48497559 58.89948242 4.73166992 59.89208984 4.98583984 C73.14284802 8.50081868 85.67979631 13.19205714 97.97265625 19.23828125 C99.03492432 19.75213379 99.03492432 19.75213379 100.11865234 20.27636719 C127.68909196 33.73239707 151.98981431 54.40548654 169.97265625 79.23828125 C170.38966797 79.81094727 170.80667969 80.38361328 171.23632812 80.97363281 C182.95876951 97.27715309 191.77067795 115.16893039 197.97265625 134.23828125 C198.30716797 135.24640869 198.30716797 135.24640869 198.6484375 136.27490234 C200.94537045 143.28724137 203.0283056 149.84873583 201.97265625 157.23828125 C199.91015625 160.30078125 199.91015625 160.30078125 196.97265625 162.23828125 C193.47265625 162.86328125 193.47265625 162.86328125 189.97265625 162.23828125 C184.01019013 157.96596301 183.02524342 151.86202315 181.16015625 145.05078125 C174.79181891 123.19357022 165.38085236 103.00051646 150.97265625 85.23828125 C150.31861816 84.43197266 150.31861816 84.43197266 149.65136719 83.609375 C139.88309423 71.64029001 129.39627019 61.42812582 116.97265625 52.23828125 C116.40337402 51.81401855 115.8340918 51.38975586 115.24755859 50.95263672 C94.56649106 35.75801949 69.2515937 25.49723267 43.97265625 21.23828125 C43.09496582 21.07126709 42.21727539 20.90425293 41.31298828 20.73217773 C31.79804467 19.05583476 22.4759045 18.88140304 12.84765625 18.92578125 C11.61876678 18.92851547 11.61876678 18.92851547 10.36505127 18.93130493 C-1.67788561 18.97644867 -13.26826736 19.44033708 -25.02734375 22.23828125 C-25.78499023 22.40457031 -26.54263672 22.57085937 -27.32324219 22.7421875 C-59.55053791 29.871536 -88.41310084 46.59313243 -111.6328125 69.84765625 C-113.01370596 71.22629703 -114.40958362 72.59092836 -115.84375 73.9140625 C-133.8713549 90.81242145 -145.95955249 114.19189619 -154.02734375 137.23828125 C-154.42308594 138.36492187 -154.81882812 139.4915625 -155.2265625 140.65234375 C-156.32479305 144.15105453 -157.21564747 147.66523383 -158.02734375 151.23828125 C-158.2402002 152.14835938 -158.45305664 153.0584375 -158.67236328 153.99609375 C-165.87943423 185.64910862 -165.26358068 218.56104787 -154.02734375 249.23828125 C-153.59173373 250.52275548 -153.15817832 251.80792812 -152.7265625 253.09375 C-137.80962276 296.3652033 -104.48457111 331.18227631 -63.8515625 351.31640625 C-50.23110145 357.90002665 -36.35767611 362.09998437 -21.65234375 365.48828125 C-20.95173828 365.65166992 -20.25113281 365.81505859 -19.52929688 365.98339844 C23.62397667 375.44966845 71.98165171 363.95626368 109.03222656 340.95996094 C126.91901726 329.29788456 142.31271794 314.35306321 154.97265625 297.23828125 C155.60905029 296.38435791 155.60905029 296.38435791 156.25830078 295.51318359 C168.2471608 279.19540342 176.15070145 260.52984577 181.97265625 241.23828125 C182.6352399 239.23692487 183.3012321 237.23668913 183.97265625 235.23828125 C182.97570849 235.24055957 182.97570849 235.24055957 181.95862037 235.24288392 C142.58595881 235.33235439 103.21331035 235.4010063 63.84056776 235.44254257 C59.11530997 235.44754552 54.3900524 235.4527228 49.66479492 235.45800781 C48.72406282 235.45905705 47.78333072 235.4601063 46.81409159 235.46118733 C31.57260131 235.47860279 16.33117124 235.51014675 1.08971671 235.54689243 C-14.54402524 235.58427014 -30.1777356 235.60651038 -45.8115204 235.61463523 C-55.46202955 235.62012959 -65.11236851 235.63749638 -74.76282529 235.66994712 C-81.37634289 235.69105588 -87.98977224 235.69748957 -94.6033211 235.69228676 C-98.42168477 235.68971929 -102.2397506 235.69371427 -106.0580616 235.71510315 C-110.19472155 235.73810655 -114.33074389 235.73025401 -118.467453 235.71929932 C-119.67853751 235.73095068 -120.88962201 235.74260205 -122.13740605 235.75460649 C-130.25269836 235.69623373 -130.25269836 235.69623373 -134.24983692 233.33321762 C-136.34645366 230.86218426 -136.96326128 229.70821933 -137.40234375 226.48828125 C-136.99578951 222.96481118 -136.0039204 221.15150538 -133.67080688 218.49969482 C-130.51886613 216.08047363 -127.04518711 216.50551673 -123.2265625 216.65234375 C-122.39018753 216.66083344 -121.55381256 216.66932312 -120.6920929 216.67807007 C-118.03167599 216.71154655 -115.37433761 216.78680788 -112.71484375 216.86328125 C-110.90694495 216.89338862 -109.09899844 216.92076308 -107.29101562 216.9453125 C-102.86861308 217.01131812 -98.44849954 217.11479412 -94.02734375 217.23828125 C-94.0362262 216.0968013 -94.04510864 214.95532135 -94.05426025 213.7792511 C-94.1353371 203.02336238 -94.19530492 192.26753564 -94.23459244 181.51141071 C-94.25546959 175.98151733 -94.28378995 170.45187058 -94.32910156 164.92211914 C-94.37255417 159.58585879 -94.39647989 154.24983571 -94.40685272 148.91341209 C-94.4142451 146.87722221 -94.42868063 144.84104535 -94.45026398 142.80495644 C-94.47928991 139.95342544 -94.48330006 137.10287559 -94.48144531 134.2512207 C-94.49582642 133.40892914 -94.51020752 132.56663757 -94.52502441 131.69882202 C-94.49682088 127.69306782 -94.33895274 125.72813438 -92.13748169 122.26739502 C-89.96850492 120.18170168 -88.06611247 118.88670167 -85.37890625 117.546875 C-84.46794189 117.08369873 -83.55697754 116.62052246 -82.6184082 116.14331055 C-81.63960693 115.65902588 -80.66080566 115.17474121 -79.65234375 114.67578125 C-77.55374852 113.60991968 -75.45611383 112.54216506 -73.359375 111.47265625 C-71.76536865 110.66344727 -71.76536865 110.66344727 -70.13916016 109.83789062 C-65.49349201 107.44981455 -60.91528933 104.94511847 -56.33984375 102.42578125 C-48.01161813 97.85589182 -39.65423975 93.34330235 -31.27734375 88.86328125 C-30.09267535 88.22936064 -28.90802367 87.5954088 -27.72338867 86.96142578 C-25.34592702 85.68917607 -22.9683942 84.41705947 -20.59082031 83.14501953 C-19.40298648 82.50945563 -18.21516095 81.87387622 -17.02734375 81.23828125 C-16.4396521 80.92381042 -15.85196045 80.6093396 -15.24645996 80.28533936 C-11.21347336 78.1268219 -7.18257261 75.9644425 -3.15234375 73.80078125 C-2.07073975 73.22199219 -0.98913574 72.64320313 0.12524414 72.046875 C4.61709723 69.63315436 9.08675922 67.20802501 13.4609375 64.5859375 C14.10240723 64.20300537 14.74387695 63.82007324 15.40478516 63.42553711 C16.99285989 62.46451998 18.56760085 61.48155318 20.140625 60.49609375 C23.69554058 58.9172209 26.09905266 58.97286767 29.97265625 59.23828125 C32.92504883 60.39306641 32.92504883 60.39306641 35.8671875 62.02734375 C36.97400879 62.63199463 38.08083008 63.23664551 39.22119141 63.85961914 C40.40927101 64.52734405 41.59725683 65.19523584 42.78515625 65.86328125 C44.0322178 66.5502421 45.28011712 67.23568409 46.52880859 67.91967773 C49.0963136 69.32804786 51.65972445 70.74346968 54.22021484 72.16455078 C59.81628826 75.26506582 65.45923516 78.27821145 71.09765625 81.30078125 C73.24117291 82.45519551 75.38440183 83.61014421 77.52734375 84.765625 C81.88543203 87.11437869 86.24488514 89.46056984 90.60546875 91.8046875 C143.72321174 120.36387412 143.72321174 120.36387412 146.97265625 124.23828125 C147.25344702 127.26705202 147.35126215 130.08780947 147.31323242 133.1159668 C147.3136705 134.02348694 147.31410858 134.93100708 147.31455994 135.86602783 C147.31246794 138.86923651 147.28911737 141.8718887 147.265625 144.875 C147.26003051 146.95579219 147.25575972 149.03658832 147.25276184 151.11738586 C147.24130151 156.59688201 147.21182398 162.07614001 147.1786499 167.55554199 C147.14797469 173.14571918 147.13426195 178.7359348 147.11914062 184.32617188 C147.08695552 195.2969797 147.03574472 206.26761068 146.97265625 217.23828125 C147.60048508 217.2293988 148.2283139 217.22051636 148.87516785 217.21136475 C155.41253552 217.1228367 161.94973277 217.06252413 168.48754883 217.01855469 C170.92707232 216.99844561 173.36654765 216.97115442 175.8059082 216.93652344 C179.31343473 216.88797636 182.82032368 216.86530493 186.328125 216.84765625 C187.41788132 216.82701111 188.50763763 216.80636597 189.63041687 216.78509521 C197.21370264 216.78285054 197.21370264 216.78285054 201.13793945 219.13769531 C204.02279535 222.4405962 204.19179678 224.6261908 204.12890625 228.99511719 C203.86777729 232.74394988 202.96926895 236.24969174 201.97265625 239.86328125 C201.7504541 240.67812988 201.52825195 241.49297852 201.29931641 242.33251953 C186.97164184 293.26571415 154.71437377 336.45730449 108.5390625 362.8046875 C85.86754105 375.3549088 61.60231993 382.90979086 35.97265625 386.23828125 C35.30322998 386.33471924 34.63380371 386.43115723 33.9440918 386.53051758 C26.62612464 387.49113442 19.27950461 387.43959508 11.91015625 387.42578125 C11.21613708 387.42451233 10.52211792 387.42324341 9.80706787 387.42193604 C-0.25763554 387.38681074 -10.1263298 387.27705405 -20.02734375 385.23828125 C-20.93049316 385.05523437 -21.83364258 384.8721875 -22.76416016 384.68359375 C-53.21771213 378.32909313 -81.37872283 366.42829367 -106.02734375 347.23828125 C-106.59565918 346.79693848 -107.16397461 346.3555957 -107.74951172 345.90087891 C-138.83661672 321.40493979 -163.06937458 287.45271526 -174.02734375 249.23828125 C-174.23697754 248.5412207 -174.44661133 247.84416016 -174.66259766 247.12597656 C-189.18967729 198.5886907 -182.86167503 145.77250836 -159.02734375 101.23828125 C-146.08226798 78.30425995 -128.83562555 57.40777411 -108.02734375 41.23828125 C-107.18792236 40.58424316 -107.18792236 40.58424316 -106.33154297 39.91699219 C-97.04328295 32.73447949 -87.45595917 26.62695655 -77.02734375 21.23828125 C-76.30063477 20.85929687 -75.57392578 20.4803125 -74.82519531 20.08984375 C-56.21881727 10.50108342 -36.66517936 4.58185355 -16.02734375 1.23828125 C-14.97015137 1.06321045 -13.91295898 0.88813965 -12.82373047 0.70776367 C-8.52615019 0.17630085 -4.32540569 0.04067526 0 0 Z " fill="#FDFCFC" transform="translate(242.02734375,65.76171875)"/>
<path d="M0 0 C1.99994778 1.27630965 3.93005747 2.61760727 5.85400391 4.00585938 C10.05660663 6.84909712 14.66178147 8.97323511 19.1875 11.25 C28.63047258 16.16158722 37.97942626 21.23910016 47.3125 26.35546875 C53.65117333 29.82827602 60.01131241 33.26079187 66.375 36.6875 C67.38731689 37.23325684 68.39963379 37.77901367 69.44262695 38.34130859 C78.29340588 43.10476589 87.17868937 47.79680614 96.0625 52.5 C96.0625 80.22 96.0625 107.94 96.0625 136.5 C71.9725 136.5 47.8825 136.5 23.0625 136.5 C22.8125 112.75 22.8125 112.75 22.76464844 105.26660156 C22.7352824 103.30791872 22.70445728 101.34925698 22.671875 99.390625 C22.67018311 97.86671143 22.67018311 97.86671143 22.66845703 96.31201172 C22.6486377 95.33796387 22.62881836 94.36391602 22.60839844 93.36035156 C22.59951599 92.51651917 22.59063354 91.67268677 22.58148193 90.80328369 C21.86129441 87.60703336 20.67911815 86.43855428 18.0625 84.5 C15.27525284 83.89037971 15.27525284 83.89037971 12.1640625 83.96655273 C10.38201416 83.94279823 10.38201416 83.94279823 8.56396484 83.91856384 C6.64511475 83.92600365 6.64511475 83.92600365 4.6875 83.93359375 C3.37088379 83.92739517 2.05426758 83.92119659 0.69775391 83.91481018 C-2.0864411 83.90441215 -4.87012482 83.90895843 -7.65429688 83.92358398 C-11.21917386 83.94077956 -14.78244018 83.91726769 -18.34713745 83.88209438 C-21.75235361 83.85483308 -25.15717968 83.86485542 -28.5625 83.87109375 C-29.8417334 83.85783554 -31.1209668 83.84457733 -32.43896484 83.83091736 C-34.22101318 83.84971703 -34.22101318 83.84971703 -36.0390625 83.86889648 C-37.60648193 83.87033913 -37.60648193 83.87033913 -39.20556641 83.87181091 C-42.12590594 84.29736859 -42.12590594 84.29736859 -44.27203369 86.74005127 C-45.99715601 89.59885972 -46.44720036 91.00530725 -46.48339844 94.2902832 C-46.50321777 95.22360474 -46.52303711 96.15692627 -46.54345703 97.11853027 C-46.54458496 98.0861731 -46.54571289 99.05381592 -46.546875 100.05078125 C-46.56250488 100.95002319 -46.57813477 101.84926514 -46.59423828 102.77575684 C-46.64666959 106.12107147 -46.66507592 109.46684966 -46.6875 112.8125 C-46.77 120.299375 -46.8525 127.78625 -46.9375 135.5 C-67.7275 135.5 -88.5175 135.5 -109.9375 135.5 C-109.9375 108.11 -109.9375 80.72 -109.9375 52.5 C-100.6975 47.55 -91.4575 42.6 -81.9375 37.5 C-74.34818753 33.4162271 -66.7594784 29.33142219 -59.17285156 25.24267578 C-55.88433232 23.47136199 -52.59466975 21.70218855 -49.3046875 19.93359375 C-48.20962891 19.34344482 -47.11457031 18.7532959 -45.98632812 18.14526367 C-43.80452732 16.97443495 -41.6183683 15.81168803 -39.42773438 14.6574707 C-34.13062519 11.85091945 -28.99849584 8.94871567 -23.9765625 5.671875 C-8.03568509 -4.50453997 -8.03568509 -4.50453997 0 0 Z " fill="#B23B61" transform="translate(275.9375,146.5)"/>
<path d="M0 0 C2.4375 2 2.4375 2 4 4 C4.78375 3.34 5.5675 2.68 6.375 2 C10.65566511 -0.84025173 15.03764705 -0.8001188 20 0 C24.42484878 2.21242439 27.19476657 4.94799616 30 9 C32.05566603 15.1669981 32.24579637 23.47972063 30.05859375 29.66015625 C27.67096282 33.66449026 25.23491177 35.93150263 21 38 C18.02734375 38.3984375 18.02734375 38.3984375 14.9375 38.375 C13.91527344 38.38273437 12.89304688 38.39046875 11.83984375 38.3984375 C8.69742953 37.95754857 7.32237977 37.10517879 5 35 C4.97421875 35.89203125 4.9484375 36.7840625 4.921875 37.703125 C4.83679688 39.45882812 4.83679688 39.45882812 4.75 41.25 C4.68039063 42.99023438 4.68039063 42.99023438 4.609375 44.765625 C3.90404646 48.50929185 3.01164783 49.73576842 0 52 C-3.46429377 52.57738229 -5.19336767 52.52299144 -8.15649414 50.60180664 C-11.01067097 46.57360342 -10.55284599 42.69187953 -10.49609375 37.87109375 C-10.49754898 36.88504654 -10.49900421 35.89899933 -10.50050354 34.8830719 C-10.49884513 32.80100547 -10.48729039 30.71892671 -10.46655273 28.63696289 C-10.43757354 25.44559856 -10.44595006 22.25589267 -10.45898438 19.06445312 C-10.4527477 17.04165858 -10.44435732 15.01886928 -10.43359375 12.99609375 C-10.43652939 12.03980576 -10.43946503 11.08351776 -10.44248962 10.09825134 C-10.42980545 9.21045486 -10.41712128 8.32265839 -10.40405273 7.40795898 C-10.39864975 6.62726547 -10.39324677 5.84657196 -10.38768005 5.04222107 C-9.31008161 -0.63435222 -4.98907037 -0.61269285 0 0 Z " fill="#FDFBFB" transform="translate(235,330)"/>
<path d="M0 0 C1.1149585 -0.00430527 1.1149585 -0.00430527 2.25244141 -0.00869751 C3.8225989 -0.01073726 5.39278186 -0.0052135 6.96289062 0.00732422 C9.36646332 0.02338047 11.76835461 0.00747398 14.171875 -0.01171875 C15.69792038 -0.0097363 17.22396471 -0.00589259 18.75 0 C19.46881348 -0.00607269 20.18762695 -0.01214539 20.92822266 -0.0184021 C23.85189779 0.02281413 25.89454064 0.07556976 28.359375 1.73193359 C29.375 3.3984375 29.375 3.3984375 29.25 6.4609375 C28.375 9.3984375 28.375 9.3984375 25.375 11.3984375 C23.01489258 11.62548828 23.01489258 11.62548828 20.26953125 11.59375 C19.28662109 11.58730469 18.30371094 11.58085937 17.29101562 11.57421875 C15.75477539 11.54908203 15.75477539 11.54908203 14.1875 11.5234375 C13.15173828 11.51441406 12.11597656 11.50539063 11.04882812 11.49609375 C8.49065315 11.4725161 5.93294252 11.4396078 3.375 11.3984375 C3.375 14.3684375 3.375 17.3384375 3.375 20.3984375 C5.47101563 20.34623047 5.47101563 20.34623047 7.609375 20.29296875 C9.44790464 20.26482799 11.28644729 20.23752814 13.125 20.2109375 C14.50558594 20.17323242 14.50558594 20.17323242 15.9140625 20.13476562 C16.80351562 20.12509766 17.69296875 20.11542969 18.609375 20.10546875 C19.42631836 20.0897583 20.24326172 20.07404785 21.08496094 20.05786133 C23.9523926 20.48430772 25.30560625 21.3919922 27.375 23.3984375 C27.75 26.4609375 27.75 26.4609375 27.375 29.3984375 C25.375 31.3984375 25.375 31.3984375 23.12841797 31.62548828 C22.21721191 31.61501465 21.30600586 31.60454102 20.3671875 31.59375 C19.38105469 31.58730469 18.39492187 31.58085937 17.37890625 31.57421875 C15.83009766 31.54908203 15.83009766 31.54908203 14.25 31.5234375 C13.20972656 31.51441406 12.16945312 31.50539063 11.09765625 31.49609375 C8.52334003 31.47247617 5.94914162 31.43660434 3.375 31.3984375 C3.375 35.0284375 3.375 38.6584375 3.375 42.3984375 C5.00050781 42.36363281 6.62601563 42.32882812 8.30078125 42.29296875 C10.42967719 42.26483356 12.55858427 42.23753312 14.6875 42.2109375 C15.75935547 42.18580078 16.83121094 42.16066406 17.93554688 42.13476562 C18.96357422 42.12509766 19.99160156 42.11542969 21.05078125 42.10546875 C21.99864502 42.0897583 22.94650879 42.07404785 23.9230957 42.05786133 C26.375 42.3984375 26.375 42.3984375 28.18041992 43.76049805 C29.375 45.3984375 29.375 45.3984375 29.8125 47.8984375 C29.375 50.3984375 29.375 50.3984375 27.80078125 52.02758789 C24.48145861 53.90339271 21.92670636 53.80339539 18.125 53.83203125 C17.08230957 53.83989403 17.08230957 53.83989403 16.01855469 53.84791565 C14.55274793 53.85432279 13.08688967 53.85301572 11.62109375 53.84448242 C9.38188013 53.83596367 7.14521228 53.86475918 4.90625 53.89648438 C3.47916743 53.89809641 2.05208035 53.89751881 0.625 53.89453125 C-0.66921875 53.89638428 -1.9634375 53.8982373 -3.296875 53.90014648 C-6.625 53.3984375 -6.625 53.3984375 -9.04711914 52.01416016 C-11.54906889 47.86656777 -11.17579153 43.80355521 -11.12109375 39.05078125 C-11.12254898 38.04253799 -11.12400421 37.03429474 -11.12550354 35.99549866 C-11.12384498 33.86635444 -11.11228861 31.73719818 -11.09155273 29.6081543 C-11.0625749 26.34437326 -11.07094962 23.08221393 -11.08398438 19.81835938 C-11.07774769 17.74999209 -11.0693573 15.68162993 -11.05859375 13.61328125 C-11.06152939 12.63511948 -11.06446503 11.6569577 -11.06748962 10.64915466 C-11.05480545 9.74133743 -11.04212128 8.8335202 -11.02905273 7.89819336 C-11.02364975 7.09973495 -11.01824677 6.30127655 -11.01268005 5.47862244 C-9.9063104 -0.45785398 -5.02815735 -0.04247897 0 0 Z " fill="#FCFAFB" transform="translate(149.625,314.6015625)"/>
<path d="M0 0 C11.22 0 22.44 0 34 0 C34 11.22 34 22.44 34 34 C22.78 34 11.56 34 0 34 C0 22.78 0 11.56 0 0 Z " fill="#B13960" transform="translate(247,248)"/>
<path d="M0 0 C3.7229703 2.6592645 6.55543557 5.73587115 8.625 9.875 C8.72034254 11.5603196 8.75485758 13.24949266 8.75 14.9375 C8.75386719 16.28521484 8.75386719 16.28521484 8.7578125 17.66015625 C8.625 19.875 8.625 19.875 7.625 20.875 C6.06327255 20.96185603 4.49770656 20.98202219 2.93359375 20.97265625 C1.98935547 20.96943359 1.04511719 20.96621094 0.07226562 20.96289062 C-0.92095703 20.95451172 -1.91417969 20.94613281 -2.9375 20.9375 C-3.93458984 20.93298828 -4.93167969 20.92847656 -5.95898438 20.92382812 C-8.43104849 20.91200007 -10.90299518 20.89551849 -13.375 20.875 C-13.045 22.525 -12.715 24.175 -12.375 25.875 C-5.60905981 25.98881955 0.91337062 25.75521369 7.625 24.875 C9.05560128 27.73620256 9.01192581 29.71510585 8.625 32.875 C2.15642282 38.08579829 -6.48206122 37.65193357 -14.375 36.875 C-20.1315728 34.83291301 -23.4694677 31.22117943 -26.375 25.875 C-28.30070993 20.09787021 -28.27687619 14.0650706 -25.6875 8.5 C-20.17661569 -1.15865236 -10.13049937 -3.37683312 0 0 Z " fill="#FCFAFA" transform="translate(299.375,331.125)"/>
<path d="M0 0 C2.45703125 1.96875 2.45703125 1.96875 4.8125 4.5 C5.60269531 5.3353125 6.39289063 6.170625 7.20703125 7.03125 C7.79871094 7.6809375 8.39039063 8.330625 9 9 C12.25216128 7.60419222 14.03526953 5.99191437 16.3125 3.3125 C19.14488579 0.37634146 19.50695387 0.01616545 23.8125 -0.125 C27 1 27 1 29 4 C29.16642762 7.57819391 28.46947941 9.45145037 26.14453125 12.16796875 C24.14243619 14.17006381 22.1069778 16.10899943 20 18 C21.38962897 21.22141262 22.983302 23.0349867 25.625 25.3125 C28.46999327 28.06266016 28.95266804 28.71127505 29.625 32.8125 C29.41875 33.864375 29.2125 34.91625 29 36 C25.487605 38.34159667 24.13508721 38.53890861 20 38 C17.4453125 36.03125 17.4453125 36.03125 15.125 33.5 C14.34382813 32.6646875 13.56265625 31.829375 12.7578125 30.96875 C12.17773438 30.3190625 11.59765625 29.669375 11 29 C7.78080263 30.39170541 5.92455037 32.0015693 3.625 34.625 C1.11107074 37.21984973 0.42083999 37.92716231 -3.25 38.5625 C-6 38 -6 38 -9 36 C-9.74926327 32.94050833 -9.97650932 31.89697764 -9 29 C-6.27873277 25.67752257 -3.22826635 22.82473306 0 20 C-1.42396885 16.74727927 -3.20049042 14.6372328 -5.6875 12.125 C-8.98324432 8.45240342 -8.98324432 8.45240342 -9.125 4.625 C-7.24285362 0.23332511 -4.50176235 -0.69982554 0 0 Z " fill="#FDFBFB" transform="translate(192,330)"/>
<path d="M0 0 C2 1.5625 2 1.5625 3 4 C3.1875 7.75 3.1875 7.75 3 11 C4.918125 10.938125 4.918125 10.938125 6.875 10.875 C9.0546875 10.8046875 9.0546875 10.8046875 11 11 C13 13 13 13 13.3125 15.4375 C13 18 13 18 11.9375 19.8125 C10 21 10 21 3 21 C3.495 28.92 3.495 28.92 4 37 C6.31 37.66 8.62 38.32 11 39 C13 41 13 41 13.3125 43.5 C13.209375 44.325 13.10625 45.15 13 46 C8.32198701 49.11867533 3.47651278 48.58676923 -2 48 C-6.57952125 45.83075309 -8.88726863 43.5654425 -11 39 C-11.35460558 35.88492638 -11.28384191 32.81737699 -11.1875 29.6875 C-11.17396484 28.85154297 -11.16042969 28.01558594 -11.14648438 27.15429688 C-11.11131217 25.10258502 -11.05751048 23.05120725 -11 21 C-12.134375 20.855625 -13.26875 20.71125 -14.4375 20.5625 C-18 20 -18 20 -19 19 C-19.1875 16.0625 -19.1875 16.0625 -19 13 C-17 11 -17 11 -13.875 10.875 C-12.92625 10.91625 -11.9775 10.9575 -11 11 C-11.0928125 9.1128125 -11.0928125 9.1128125 -11.1875 7.1875 C-11.16521115 4.66886049 -11.13502197 3.27004394 -10 1 C-6.73582328 -0.63208836 -3.56124386 -0.65289471 0 0 Z " fill="#FCFAFA" transform="translate(365,320)"/>
<path d="M0 0 C2.4375 2 2.4375 2 4 4 C4.66 3.34 5.32 2.68 6 2 C10.07112242 -0.71408161 12.1775917 -0.47433524 17 0 C19 2 19 2 19.4375 5.4375 C19 9 19 9 17 10.8125 C13.37174836 12.24868294 9.80030601 13.11326193 6 14 C4.46699886 15.53300114 4.83803164 16.97952979 4.7890625 19.11328125 C4.76070313 19.94923828 4.73234375 20.78519531 4.703125 21.64648438 C4.65139102 23.41190646 4.60701804 25.1775609 4.5703125 26.94335938 C4.33504427 33.32991145 4.33504427 33.32991145 2.7109375 36.578125 C0.64864498 38.29199367 -0.34129546 38.51303138 -3 38.4375 C-4.0209375 38.43556641 -4.0209375 38.43556641 -5.0625 38.43359375 C-7.6797908 37.8478694 -8.41014117 37.17686236 -10 35 C-10.38818359 31.76953125 -10.38818359 31.76953125 -10.3984375 27.8125 C-10.40130768 27.11358643 -10.40417786 26.41467285 -10.40713501 25.69458008 C-10.40917425 24.21857899 -10.40365403 22.74255079 -10.39111328 21.26660156 C-10.3750558 19.00784862 -10.3909647 16.75088482 -10.41015625 14.4921875 C-10.40817379 13.05728772 -10.40433006 11.62238905 -10.3984375 10.1875 C-10.39505371 8.88167969 -10.39166992 7.57585937 -10.38818359 6.23046875 C-10 3 -10 3 -8.68994141 1.078125 C-5.77583731 -0.78097406 -3.33987076 -0.41015957 0 0 Z " fill="#FCFAFA" transform="translate(323,330)"/>
<path d="M0 0 C0.66 0.66 1.32 1.32 2 2 C1.625 4.125 1.625 4.125 1 6 C0.39671875 6.10957031 -0.2065625 6.21914063 -0.828125 6.33203125 C-6.93684987 7.50797128 -6.93684987 7.50797128 -12 11 C-11.76051435 15.70988449 -11.59162968 18.14735722 -8.875 22.0625 C-6.06801042 24.35330351 -6.06801042 24.35330351 -2.3125 23.9375 C1.04787282 23.27734142 1.04787282 23.27734142 3 21 C2.6814823 18.89179203 2.6814823 18.89179203 2 17 C1.01 17.66 0.02 18.32 -1 19 C-3.1875 18.625 -3.1875 18.625 -5 18 C-5 16.68 -5 15.36 -5 14 C-3.390625 12.4453125 -3.390625 12.4453125 -1.25 11.125 C-0.55390625 10.67382812 0.1421875 10.22265625 0.859375 9.7578125 C3 9 3 9 5.08984375 9.59375 C7.38958002 11.28680737 8.43916344 12.87727007 9.8125 15.375 C10.25207031 16.14585938 10.69164062 16.91671875 11.14453125 17.7109375 C12.13893976 20.37177487 12.10769254 21.41178181 11 24 C6.17178569 28.71325683 1.33325984 31.58334252 -5.5 32.4375 C-9.74094124 31.90738234 -12.82039054 30.82464118 -16 28 C-19.04789399 24.02315092 -20.79345096 20.33109384 -21.5625 15.375 C-20.71854435 10.31126613 -19.05236923 6.8392564 -15.26953125 3.44921875 C-10.46702568 0.04624574 -5.84447151 -1.15191866 0 0 Z " fill="#FBF7F8" transform="translate(155,42)"/>
<path d="M0 0 C2.8203125 1.36328125 2.8203125 1.36328125 5 3 C5.8125 5.6875 5.8125 5.6875 6 8 C2.29511898 9.37217815 0.5574796 8.43993222 -3 7 C-6.20870233 6.83242243 -6.20870233 6.83242243 -9 7 C-9 7.99 -9 8.98 -9 10 C-8.25234375 10.24234375 -7.5046875 10.4846875 -6.734375 10.734375 C-5.74953125 11.06953125 -4.7646875 11.4046875 -3.75 11.75 C-2.77546875 12.07484375 -1.8009375 12.3996875 -0.796875 12.734375 C2.23473164 14.10621935 3.91577321 15.42022278 6 18 C6.5625 21.4375 6.5625 21.4375 6 25 C3.45862841 28.15954305 1.85377341 29.71540886 -2 31 C-9.16765618 31.77660218 -13.82464688 30.65946852 -20 27 C-19.67 25.35 -19.34 23.7 -19 22 C-18.030625 22.165 -17.06125 22.33 -16.0625 22.5 C-11.70512237 23.13396273 -7.39369296 23.0896672 -3 23 C-3 22.34 -3 21.68 -3 21 C-3.90363281 20.68546875 -4.80726563 20.3709375 -5.73828125 20.046875 C-6.91777344 19.61890625 -8.09726562 19.1909375 -9.3125 18.75 C-10.48425781 18.33234375 -11.65601563 17.9146875 -12.86328125 17.484375 C-16.0554888 15.97374129 -17.36130813 15.08286275 -19 12 C-19.08071259 7.56080767 -18.44247858 5.56206739 -15.6875 2.0625 C-11.17131146 -1.25887167 -5.31468955 -0.8583617 0 0 Z " fill="#FAF6F7" transform="translate(267,17)"/>
<path d="M0 0 C2.5625 0.1875 2.5625 0.1875 4.5625 2.1875 C5.02097689 4.54780696 5.38393131 6.9273174 5.6875 9.3125 C5.85507813 10.59382813 6.02265625 11.87515625 6.1953125 13.1953125 C6.37707031 14.67644531 6.37707031 14.67644531 6.5625 16.1875 C8.8725 13.2175 11.1825 10.2475 13.5625 7.1875 C16.0375 7.6825 16.0375 7.6825 18.5625 8.1875 C19.21484375 9.953125 19.21484375 9.953125 19.5625 12.1875 C18.56640625 14.109375 18.56640625 14.109375 17.125 15.9375 C16.65191406 16.55109375 16.17882812 17.1646875 15.69140625 17.796875 C15.31886719 18.25578125 14.94632813 18.7146875 14.5625 19.1875 C15.4596875 19.620625 15.4596875 19.620625 16.375 20.0625 C18.5625 21.1875 18.5625 21.1875 21.5625 23.1875 C21.2325 24.8375 20.9025 26.4875 20.5625 28.1875 C18.859375 28.87109375 18.859375 28.87109375 16.5625 29.1875 C14.203125 27.97265625 14.203125 27.97265625 11.8125 26.25 C11.01328125 25.68410156 10.2140625 25.11820313 9.390625 24.53515625 C8.78734375 24.09042969 8.1840625 23.64570312 7.5625 23.1875 C6.9025 25.4975 6.2425 27.8075 5.5625 30.1875 C3.1875 30.8125 3.1875 30.8125 0.5625 31.1875 C-2.20704483 28.41795517 -2.14392892 25.54350412 -2.5625 21.8125 C-2.64669189 21.1002124 -2.73088379 20.3879248 -2.81762695 19.65405273 C-3.49491012 13.52282166 -3.9167014 7.35025284 -3.4375 1.1875 C-2.4375 0.1875 -2.4375 0.1875 0 0 Z " fill="#FBF7F7" transform="translate(221.4375,18.8125)"/>
<path d="M0 0 C4.05782253 1.56070097 7.10270785 2.99460545 9 7 C9.66246288 10.85700607 9.90087811 14.39176575 7.9453125 17.8828125 C5.1287072 21.33273733 3.27419366 22.84709676 -1.125 23.375 C-6.02879243 22.90043944 -9.19443109 21.06301888 -13 18 C-14.74221711 14.51556578 -14.58675154 10.80112955 -14 7 C-10.57407555 0.81288271 -6.81957483 -0.45463832 0 0 Z " fill="#FCF9F9" transform="translate(335,40)"/>
<path d="M0 0 C2.77267479 2.16731378 4.80328771 4.78140821 6.9375 7.5625 C7.52595703 8.26697266 8.11441406 8.97144531 8.72070312 9.69726562 C11.55074 13.26357225 12.91868387 15.29829792 13.453125 19.91015625 C13 23 13 23 11.8125 24.875 C9.33889968 26.41033813 7.94972484 27 5 27 C0.32215572 23.58207234 -3.06643073 19.74370083 -6.4375 15.0625 C-6.89576172 14.46759766 -7.35402344 13.87269531 -7.82617188 13.25976562 C-10.00551 10.25208179 -11.00361148 8.43802115 -10.97265625 4.68359375 C-9.03154561 -0.67200066 -5.08382867 -0.81108007 0 0 Z " fill="#FCFAFA" transform="translate(144,149)"/>
<path d="M0 0 C3.61703651 0.09552797 6.04101231 0.31865858 9.4375 1.625 C12.36171753 6.22019897 11.74400117 11.09176102 11.1875 16.375 C10.1875 20.125 10.1875 20.125 9.1875 22.375 C6.875 23 6.875 23 4.1875 23.375 C3.1975 22.715 2.2075 22.055 1.1875 21.375 C0.053125 21.41625 -1.08125 21.4575 -2.25 21.5 C-5.8125 21.375 -5.8125 21.375 -8.25 19.75 C-10.26064771 16.69381548 -10.34770313 14.96850675 -9.8125 11.375 C-8.18500975 9.18965931 -7.34336455 8.45448774 -4.62109375 8.046875 C-3.44740234 8.08554687 -3.44740234 8.08554687 -2.25 8.125 C-1.07244141 8.14820313 -1.07244141 8.14820313 0.12890625 8.171875 C2.1875 8.375 2.1875 8.375 4.1875 9.375 C3.8575 8.385 3.5275 7.395 3.1875 6.375 C0.2175 6.375 -2.7525 6.375 -5.8125 6.375 C-6.4725 5.055 -7.1325 3.735 -7.8125 2.375 C-5.14765635 -0.28984365 -3.71370172 0.04579164 0 0 Z " fill="#FBF8F8" transform="translate(288.8125,28.625)"/>
<path d="M0 0 C1.67542976 0.28604898 3.34385343 0.61781233 5 1 C5.33 2.32 5.66 3.64 6 5 C7.0725 4.9175 8.145 4.835 9.25 4.75 C13 5 13 5 15.4375 6.625 C17.47521417 9.72232553 17.33570029 11.32496529 17 15 C15.64453125 18.2109375 15.64453125 18.2109375 13.8125 21.375 C12.92498047 22.96441406 12.92498047 22.96441406 12.01953125 24.5859375 C10 27 10 27 7.38671875 27.4765625 C5 27 5 27 3 25 C3.19550256 21.5787052 4.3811841 19.23897542 6.125 16.375 C6.74375 15.26125 7.3625 14.1475 8 13 C7.67 12.01 7.34 11.02 7 10 C5.09584542 10.11879277 5.09584542 10.11879277 3 11 C1.21137528 13.29500981 1.21137528 13.29500981 -0.25 16.0625 C-0.77078125 16.98160156 -1.2915625 17.90070313 -1.828125 18.84765625 C-2.40820312 19.91306641 -2.40820312 19.91306641 -3 21 C-7.875 20.125 -7.875 20.125 -9 19 C-9.69317362 14.19165643 -7.60557647 11.11895394 -5.0625 7.25 C-4.68931641 6.66089844 -4.31613281 6.07179688 -3.93164062 5.46484375 C-1.23028274 1.23028274 -1.23028274 1.23028274 0 0 Z " fill="#FBF8F9" transform="translate(355,50)"/>
<path d="M0 0 C2.76451809 1.02658294 5.25999607 2.40699277 7.8125 3.875 C8.47958984 4.23980469 9.14667969 4.60460937 9.83398438 4.98046875 C12.5102347 6.46577418 14.82612754 7.82612754 17 10 C17.4667512 13.57842586 17.40228636 15.37243328 15.4375 18.4375 C11.9400663 20.67944468 10.01133393 19.85662983 6 19 C3.46602602 17.92555195 1.10829018 16.8392003 -1.3125 15.5625 C-1.93189453 15.24990234 -2.55128906 14.93730469 -3.18945312 14.61523438 C-5.79991516 13.27457363 -7.91283429 12.08716571 -10 10 C-10.54587156 3.99541284 -10.54587156 3.99541284 -8.9375 1.0625 C-5.86674176 -0.62146419 -3.46564857 -0.27655175 0 0 Z " fill="#FCF9FA" transform="translate(123,169)"/>
<path d="M0 0 C3.22410993 2.40093293 4.69450034 3.94250118 5.8125 7.8125 C5.874375 8.534375 5.93625 9.25625 6 10 C4.75336669 10.50833591 3.50250613 11.00631145 2.25 11.5 C1.55390625 11.7784375 0.8578125 12.056875 0.140625 12.34375 C-2 13 -2 13 -6 13 C-5.67 13.66 -5.34 14.32 -5 15 C-3 14.66666667 -1 14.33333333 1 14 C3 13.66666667 5 13.33333333 7 13 C7.25 15.3125 7.25 15.3125 7 18 C3.53022946 21.46977054 0.29613473 21.88216957 -4.4375 22.3125 C-8.65639083 21.94242186 -10.08113077 21.0022655 -13 18 C-15.52599898 14.51171569 -15.50729677 11.20331607 -15 7 C-11.34316338 0.90980369 -7.04707153 -1.2015122 0 0 Z " fill="#F7EDF0" transform="translate(207,32)"/>
<path d="M0 0 C3.38186376 1.9427728 4.70264591 2.99357079 5.8125 6.75 C5.874375 7.4925 5.93625 8.235 6 9 C4.5437455 9.67119549 3.08492133 10.33681807 1.625 11 C0.40683594 11.556875 0.40683594 11.556875 -0.8359375 12.125 C-3 13 -3 13 -5 13 C-4.67 13.66 -4.34 14.32 -4 15 C-0.62537285 14.45276317 1.08235 13.9451 4 12 C5.32 12 6.64 12 8 12 C8.33 13.32 8.66 14.64 9 16 C2.38898164 21.72954925 2.38898164 21.72954925 -3.3125 22.375 C-8.20301701 21.87765929 -9.57084492 20.42915508 -13 17 C-14.72869779 13.54260443 -14.48966895 9.78024432 -14 6 C-10.37213198 0.19541117 -6.70204644 -0.9244202 0 0 Z " fill="#FBF8F8" transform="translate(181,40)"/>
<path d="M0 0 C1.3602832 -0.0299707 1.3602832 -0.0299707 2.74804688 -0.06054688 C9.34142931 -0.05569523 9.34142931 -0.05569523 12.6953125 2.23828125 C14.0625 4.4375 14.0625 4.4375 14 8.0625 C13.0625 11.4375 13.0625 11.4375 10.0625 13.4375 C6.74336639 13.86571391 3.40632422 13.76177403 0.0625 13.75 C-1.31035156 13.77416992 -1.31035156 13.77416992 -2.7109375 13.79882812 C-3.59007813 13.79947266 -4.46921875 13.80011719 -5.375 13.80078125 C-6.57962891 13.80525269 -6.57962891 13.80525269 -7.80859375 13.80981445 C-10.47599802 13.3433246 -11.35239542 12.60858075 -12.9375 10.4375 C-13.59188656 4.32989214 -13.59188656 4.32989214 -11.69702148 1.74584961 C-8.31161605 -0.77147906 -4.06433731 -0.03164028 0 0 Z " fill="#FDFCFC" transform="translate(123.9375,195.5625)"/>
<path d="M0 0 C2.97 0.495 2.97 0.495 6 1 C7.292087 4.62869155 6.68914318 6.96390311 5.6015625 10.60546875 C5.28703125 11.67087891 4.9725 12.73628906 4.6484375 13.83398438 C4.31070312 14.94064453 3.97296875 16.04730469 3.625 17.1875 C3.295 18.30576172 2.965 19.42402344 2.625 20.57617188 C0.15484984 28.84515016 0.15484984 28.84515016 -1 30 C-3.4375 30.1875 -3.4375 30.1875 -6 30 C-6.66 29.34 -7.32 28.68 -8 28 C-7.59201208 22.41700739 -6.07318912 17.12329658 -4.5625 11.75 C-4.34529297 10.94820312 -4.12808594 10.14640625 -3.90429688 9.3203125 C-3.68966797 8.54945312 -3.47503906 7.77859375 -3.25390625 6.984375 C-3.06127197 6.29053711 -2.8686377 5.59669922 -2.67016602 4.88183594 C-2 3 -2 3 0 0 Z " fill="#FBF7F8" transform="translate(313,25)"/>
<path d="M0 0 C2.80943105 2.35629701 2.97562519 3.77656425 3.375 7.4375 C2.95159861 11.4598132 1.88012301 14.11987699 -1 17 C-4.40932922 17.37881436 -6.37817286 17.36000519 -9.375 15.625 C-11.89228651 11.5586141 -11.74814229 7.65082268 -11 3 C-8.16400241 -1.87791585 -5.11933774 -1.48926189 0 0 Z " fill="#B23760" transform="translate(250,341)"/>
<path d="M0 0 C6.93 0 13.86 0 21 0 C19 4 19 4 15.9375 5.25 C11.74840668 6.22482046 7.25311818 6.76655037 3 6 C1.234375 4.66796875 1.234375 4.66796875 0 3 C0 2.01 0 1.02 0 0 Z " fill="#B0285A" transform="translate(286,352)"/>
<path d="M0 0 C1.65 0.33 3.3 0.66 5 1 C5.80967438 3.91482778 6.21845993 5.46113217 5.0625 8.3125 C4.5365625 9.1478125 4.5365625 9.1478125 4 10 C2.02 10 0.04 10 -2 10 C-3.06351675 6.61608307 -3.21442982 5.4195366 -1.5625 2.1875 C-1.046875 1.465625 -0.53125 0.74375 0 0 Z " fill="#B43B64" transform="translate(331,46)"/>
<path d="M0 0 C2.5625 0.375 2.5625 0.375 4.375 2.25 C5.5625 4.375 5.5625 4.375 5.5625 6.375 C1.9325 6.375 -1.6975 6.375 -5.4375 6.375 C-3.9975 0.615 -3.9975 0.615 0 0 Z " fill="#B12C5C" transform="translate(291.4375,338.625)"/>
<path d="M0 0 C0.66 0.33 1.32 0.66 2 1 C-3.61 6.61 -9.22 12.22 -15 18 C-15.66 17.67 -16.32 17.34 -17 17 C-11.62789574 10.92530665 -6.3343346 5.09500827 0 0 Z " fill="#B1295B" transform="translate(138,127)"/>
<path d="M0 0 C0 0.66 0 1.32 0 2 C-1.98 2.33 -3.96 2.66 -6 3 C-6.33 2.01 -6.66 1.02 -7 0 C-3.98968256 -0.93423645 -3.13349732 -1.04449911 0 0 Z " fill="#AF2356" transform="translate(208,45)"/>
<path d="M0 0 C1.65 0 3.3 0 5 0 C4.67 1.32 4.34 2.64 4 4 C2.68 4 1.36 4 0 4 C0 2.68 0 1.36 0 0 Z " fill="#B74269" transform="translate(287,41)"/>
<path d="M0 0 C1.98 0 3.96 0 6 0 C6.33 1.32 6.66 2.64 7 4 C4.69 3.34 2.38 2.68 0 2 C0 1.34 0 0.68 0 0 Z " fill="#BA4C70" transform="translate(286,34)"/>
<path d="M0 0 C1.9375 0.375 1.9375 0.375 4 1 C4.33 1.66 4.66 2.32 5 3 C3.02 3.66 1.04 4.32 -1 5 C-0.67 3.35 -0.34 1.7 0 0 Z " fill="#B33261" transform="translate(175,45)"/>
</svg>
